<mxfile host="app.diagrams.net" modified="2020-12-02T07:41:30.028Z" agent="5.0 (Macintosh; Intel Mac OS X 11_0_0) AppleWebKit/537.36 (KHTML, like Gecko) Chrome/86.0.4240.198 Safari/537.36" etag="wH8R0M9dOiZD2LKR1VoK" version="13.10.5" type="github">
  <diagram id="j1D02S02AOU5POCYw8tY" name="Page-1">
    <mxGraphModel dx="946" dy="646" grid="1" gridSize="10" guides="1" tooltips="1" connect="1" arrows="1" fold="1" page="1" pageScale="1" pageWidth="827" pageHeight="1169" math="0" shadow="0">
      <root>
        <mxCell id="0" />
        <mxCell id="1" parent="0" />
        <mxCell id="N28B4GikOr0903KpsurZ-1" value="业务DB" style="shape=cylinder3;whiteSpace=wrap;html=1;boundedLbl=1;backgroundOutline=1;size=15;" vertex="1" parent="1">
          <mxGeometry x="30" y="100" width="90" height="60" as="geometry" />
        </mxCell>
        <mxCell id="N28B4GikOr0903KpsurZ-13" value="" style="edgeStyle=orthogonalEdgeStyle;rounded=0;orthogonalLoop=1;jettySize=auto;html=1;" edge="1" parent="1" source="N28B4GikOr0903KpsurZ-5" target="N28B4GikOr0903KpsurZ-12">
          <mxGeometry relative="1" as="geometry" />
        </mxCell>
        <mxCell id="N28B4GikOr0903KpsurZ-5" value="pgg CDC" style="shape=process;whiteSpace=wrap;html=1;backgroundOutline=1;" vertex="1" parent="1">
          <mxGeometry x="170" y="140" width="80" height="40" as="geometry" />
        </mxCell>
        <mxCell id="N28B4GikOr0903KpsurZ-6" value="" style="edgeStyle=orthogonalEdgeStyle;rounded=0;orthogonalLoop=1;jettySize=auto;html=1;" edge="1" parent="1" source="N28B4GikOr0903KpsurZ-1" target="N28B4GikOr0903KpsurZ-5">
          <mxGeometry relative="1" as="geometry" />
        </mxCell>
        <mxCell id="N28B4GikOr0903KpsurZ-14" value="" style="edgeStyle=orthogonalEdgeStyle;rounded=0;orthogonalLoop=1;jettySize=auto;html=1;" edge="1" parent="1" source="N28B4GikOr0903KpsurZ-7" target="N28B4GikOr0903KpsurZ-12">
          <mxGeometry relative="1" as="geometry">
            <Array as="points">
              <mxPoint x="270" y="220" />
              <mxPoint x="270" y="190" />
            </Array>
          </mxGeometry>
        </mxCell>
        <mxCell id="N28B4GikOr0903KpsurZ-7" value="logger config" style="shape=process;whiteSpace=wrap;html=1;backgroundOutline=1;" vertex="1" parent="1">
          <mxGeometry x="160" y="200" width="100" height="40" as="geometry" />
        </mxCell>
        <mxCell id="N28B4GikOr0903KpsurZ-11" value="" style="edgeStyle=orthogonalEdgeStyle;rounded=0;orthogonalLoop=1;jettySize=auto;html=1;" edge="1" parent="1" source="N28B4GikOr0903KpsurZ-9" target="N28B4GikOr0903KpsurZ-7">
          <mxGeometry relative="1" as="geometry" />
        </mxCell>
        <mxCell id="N28B4GikOr0903KpsurZ-9" value="从业务打点日志" style="strokeWidth=2;html=1;shape=mxgraph.flowchart.multi-document;whiteSpace=wrap;" vertex="1" parent="1">
          <mxGeometry x="10" y="200" width="115" height="60" as="geometry" />
        </mxCell>
        <mxCell id="N28B4GikOr0903KpsurZ-12" value="kafka" style="strokeWidth=2;html=1;shape=mxgraph.flowchart.direct_data;whiteSpace=wrap;fillColor=#d5e8d4;strokeColor=#82b366;" vertex="1" parent="1">
          <mxGeometry x="290" y="170" width="80" height="40" as="geometry" />
        </mxCell>
        <mxCell id="N28B4GikOr0903KpsurZ-16" value="" style="edgeStyle=orthogonalEdgeStyle;rounded=0;orthogonalLoop=1;jettySize=auto;html=1;entryX=0;entryY=0.5;entryDx=0;entryDy=0;curved=1;" edge="1" parent="1" source="N28B4GikOr0903KpsurZ-12" target="N28B4GikOr0903KpsurZ-18">
          <mxGeometry relative="1" as="geometry">
            <mxPoint x="400" y="220" as="targetPoint" />
          </mxGeometry>
        </mxCell>
        <mxCell id="N28B4GikOr0903KpsurZ-34" style="edgeStyle=orthogonalEdgeStyle;rounded=0;orthogonalLoop=1;jettySize=auto;html=1;exitX=1;exitY=0.5;exitDx=0;exitDy=0;entryX=0;entryY=0.5;entryDx=0;entryDy=0;" edge="1" parent="1" source="N28B4GikOr0903KpsurZ-18" target="N28B4GikOr0903KpsurZ-26">
          <mxGeometry relative="1" as="geometry">
            <Array as="points">
              <mxPoint x="498" y="230" />
              <mxPoint x="498" y="335" />
            </Array>
          </mxGeometry>
        </mxCell>
        <mxCell id="N28B4GikOr0903KpsurZ-18" value="dss" style="shape=process;whiteSpace=wrap;html=1;backgroundOutline=1;" vertex="1" parent="1">
          <mxGeometry x="400" y="210" width="70" height="40" as="geometry" />
        </mxCell>
        <mxCell id="N28B4GikOr0903KpsurZ-42" value="" style="edgeStyle=elbowEdgeStyle;rounded=0;orthogonalLoop=1;jettySize=auto;elbow=vertical;html=1;exitX=1;exitY=0.5;exitDx=0;exitDy=0;exitPerimeter=0;" edge="1" parent="1" source="N28B4GikOr0903KpsurZ-21" target="N28B4GikOr0903KpsurZ-37">
          <mxGeometry relative="1" as="geometry">
            <Array as="points">
              <mxPoint x="580" y="160" />
            </Array>
          </mxGeometry>
        </mxCell>
        <mxCell id="N28B4GikOr0903KpsurZ-44" style="edgeStyle=elbowEdgeStyle;rounded=0;orthogonalLoop=1;jettySize=auto;elbow=vertical;html=1;entryX=0;entryY=0.5;entryDx=0;entryDy=0;entryPerimeter=0;" edge="1" parent="1" source="N28B4GikOr0903KpsurZ-21" target="N28B4GikOr0903KpsurZ-43">
          <mxGeometry relative="1" as="geometry" />
        </mxCell>
        <mxCell id="N28B4GikOr0903KpsurZ-21" value="flink 实时计算" style="shape=tape;whiteSpace=wrap;html=1;strokeWidth=2;size=0.19" vertex="1" parent="1">
          <mxGeometry x="400" y="137.5" width="110" height="45" as="geometry" />
        </mxCell>
        <mxCell id="N28B4GikOr0903KpsurZ-23" value="" style="endArrow=classic;html=1;entryX=0;entryY=0.5;entryDx=0;entryDy=0;entryPerimeter=0;edgeStyle=orthogonalEdgeStyle;" edge="1" parent="1" target="N28B4GikOr0903KpsurZ-21">
          <mxGeometry width="50" height="50" relative="1" as="geometry">
            <mxPoint x="370" y="190" as="sourcePoint" />
            <mxPoint x="440" y="120" as="targetPoint" />
          </mxGeometry>
        </mxCell>
        <mxCell id="N28B4GikOr0903KpsurZ-46" style="edgeStyle=elbowEdgeStyle;rounded=0;orthogonalLoop=1;jettySize=auto;elbow=horizontal;html=1;entryX=0.5;entryY=1;entryDx=0;entryDy=0;entryPerimeter=0;exitX=0.864;exitY=0.02;exitDx=0;exitDy=0;exitPerimeter=0;" edge="1" parent="1" source="N28B4GikOr0903KpsurZ-26" target="N28B4GikOr0903KpsurZ-43">
          <mxGeometry relative="1" as="geometry" />
        </mxCell>
        <mxCell id="N28B4GikOr0903KpsurZ-26" value="" style="rounded=1;whiteSpace=wrap;html=1;absoluteArcSize=1;arcSize=14;strokeWidth=2;fillColor=#fff2cc;strokeColor=#d6b656;" vertex="1" parent="1">
          <mxGeometry x="520" y="260" width="220" height="150" as="geometry" />
        </mxCell>
        <mxCell id="N28B4GikOr0903KpsurZ-29" value="" style="edgeStyle=orthogonalEdgeStyle;curved=1;rounded=0;orthogonalLoop=1;jettySize=auto;html=1;" edge="1" parent="1" source="N28B4GikOr0903KpsurZ-27" target="N28B4GikOr0903KpsurZ-28">
          <mxGeometry relative="1" as="geometry" />
        </mxCell>
        <mxCell id="N28B4GikOr0903KpsurZ-27" value="ods&lt;br&gt;每个小时定时将原始数据变orc格式到hive" style="rounded=1;whiteSpace=wrap;html=1;absoluteArcSize=1;arcSize=14;strokeWidth=2;" vertex="1" parent="1">
          <mxGeometry x="530" y="280" width="50" height="100" as="geometry" />
        </mxCell>
        <mxCell id="N28B4GikOr0903KpsurZ-28" value="" style="whiteSpace=wrap;html=1;rounded=1;strokeWidth=2;arcSize=14;" vertex="1" parent="1">
          <mxGeometry x="607.5" y="275.63" width="112.5" height="108.75" as="geometry" />
        </mxCell>
        <mxCell id="N28B4GikOr0903KpsurZ-30" value="DW层" style="text;html=1;strokeColor=none;fillColor=none;align=center;verticalAlign=middle;whiteSpace=wrap;rounded=0;" vertex="1" parent="1">
          <mxGeometry x="638.75" y="280" width="50" height="20" as="geometry" />
        </mxCell>
        <mxCell id="N28B4GikOr0903KpsurZ-31" value="原始数据内部聚合，填充数据" style="rounded=1;whiteSpace=wrap;html=1;absoluteArcSize=1;arcSize=14;strokeWidth=2;" vertex="1" parent="1">
          <mxGeometry x="610" y="300" width="40" height="80" as="geometry" />
        </mxCell>
        <mxCell id="N28B4GikOr0903KpsurZ-32" value="聚合汇总" style="rounded=1;whiteSpace=wrap;html=1;absoluteArcSize=1;arcSize=14;strokeWidth=2;" vertex="1" parent="1">
          <mxGeometry x="670" y="300" width="40" height="80" as="geometry" />
        </mxCell>
        <mxCell id="N28B4GikOr0903KpsurZ-35" value="HDFS&amp;amp;Hive" style="text;html=1;strokeColor=none;fillColor=none;align=center;verticalAlign=middle;whiteSpace=wrap;rounded=0;" vertex="1" parent="1">
          <mxGeometry x="618.75" y="384.38" width="90" height="16" as="geometry" />
        </mxCell>
        <mxCell id="N28B4GikOr0903KpsurZ-37" value="druid" style="strokeWidth=2;html=1;shape=mxgraph.flowchart.database;whiteSpace=wrap;fillColor=#dae8fc;strokeColor=#6c8ebf;" vertex="1" parent="1">
          <mxGeometry x="618.75" y="196.25" width="60.63" height="47.5" as="geometry" />
        </mxCell>
        <mxCell id="N28B4GikOr0903KpsurZ-41" style="edgeStyle=orthogonalEdgeStyle;rounded=0;orthogonalLoop=1;jettySize=auto;html=1;exitX=1;exitY=0.5;exitDx=0;exitDy=0;entryX=0;entryY=0.5;entryDx=0;entryDy=0;entryPerimeter=0;" edge="1" parent="1" source="N28B4GikOr0903KpsurZ-18" target="N28B4GikOr0903KpsurZ-37">
          <mxGeometry relative="1" as="geometry">
            <mxPoint x="480" y="240" as="sourcePoint" />
            <mxPoint x="530" y="345" as="targetPoint" />
            <Array as="points">
              <mxPoint x="500" y="230" />
              <mxPoint x="500" y="220" />
            </Array>
          </mxGeometry>
        </mxCell>
        <mxCell id="N28B4GikOr0903KpsurZ-43" value="clickhouse&lt;br&gt;" style="strokeWidth=2;html=1;shape=mxgraph.flowchart.database;whiteSpace=wrap;fillColor=#f8cecc;strokeColor=#b85450;" vertex="1" parent="1">
          <mxGeometry x="679.38" y="130" width="61.25" height="60" as="geometry" />
        </mxCell>
        <mxCell id="N28B4GikOr0903KpsurZ-48" value="维度数据表" style="text;html=1;align=center;verticalAlign=middle;resizable=0;points=[];autosize=1;" vertex="1" parent="1">
          <mxGeometry x="679.38" y="220" width="80" height="20" as="geometry" />
        </mxCell>
        <mxCell id="N28B4GikOr0903KpsurZ-50" value="" style="edgeStyle=elbowEdgeStyle;rounded=0;orthogonalLoop=1;jettySize=auto;elbow=vertical;html=1;entryX=1;entryY=0.5;entryDx=0;entryDy=0;" edge="1" parent="1" source="N28B4GikOr0903KpsurZ-49" target="N28B4GikOr0903KpsurZ-26">
          <mxGeometry relative="1" as="geometry" />
        </mxCell>
        <mxCell id="N28B4GikOr0903KpsurZ-49" value="presto" style="rounded=1;whiteSpace=wrap;html=1;absoluteArcSize=1;arcSize=14;strokeWidth=2;fillColor=#f5f5f5;strokeColor=#666666;fontColor=#333333;" vertex="1" parent="1">
          <mxGeometry x="759.38" y="287.81" width="54" height="94.37" as="geometry" />
        </mxCell>
        <mxCell id="N28B4GikOr0903KpsurZ-52" value="superset&lt;br&gt;&lt;br&gt;guidance 对外客户" style="rounded=1;whiteSpace=wrap;html=1;absoluteArcSize=1;arcSize=14;strokeWidth=2;" vertex="1" parent="1">
          <mxGeometry x="880" y="170" width="60" height="134.37" as="geometry" />
        </mxCell>
        <mxCell id="N28B4GikOr0903KpsurZ-53" value="查询中心" style="text;html=1;strokeColor=none;fillColor=none;align=center;verticalAlign=middle;whiteSpace=wrap;rounded=0;" vertex="1" parent="1">
          <mxGeometry x="885" y="182.5" width="50" height="17.5" as="geometry" />
        </mxCell>
        <mxCell id="N28B4GikOr0903KpsurZ-54" value="" style="shape=singleArrow;direction=west;whiteSpace=wrap;html=1;fillColor=#dae8fc;strokeColor=#6c8ebf;" vertex="1" parent="1">
          <mxGeometry x="820" y="207.18" width="60" height="62.82" as="geometry" />
        </mxCell>
      </root>
    </mxGraphModel>
  </diagram>
</mxfile>
